<?xml version="1.0" encoding="UTF-8"?>
<svg width="21px" height="13px" viewBox="0 0 21 13" version="1.1" xmlns="http://www.w3.org/2000/svg" xmlns:xlink="http://www.w3.org/1999/xlink">
    <title>PPS/S</title>
    <g id="Symbols" stroke="none" stroke-width="1" fill="none" fill-rule="evenodd">
        <g id="Action-Button/PPS" transform="translate(-7.000000, -10.000000)" fill="#101A5C">
            <path d="M28,10 L28,23 L27,23 L27,21 L8,21 L8,23 L7,23 L7,10 L28,10 Z M12,16 L8,16 L8,20 L12,20 L12,16 Z M17,16 L13,16 L13,20 L17,20 L17,16 Z M22,16 L18,16 L18,20 L22,20 L22,16 Z M27,16 L23,16 L23,20 L27,20 L27,16 Z M12,11 L8,11 L8,15 L12,15 L12,11 Z M17,11 L13,11 L13,15 L17,15 L17,11 Z M22,11 L18,11 L18,15 L22,15 L22,11 Z M27,11 L23,11 L23,15 L27,15 L27,11 Z" id="PPS/S"></path>
        </g>
    </g>
</svg>